<?xml version="1.0" encoding="utf-8"?>
<!-- Generator: Adobe Illustrator 22.0.1, SVG Export Plug-In . SVG Version: 6.00 Build 0)  -->
<svg version="1.1" id="Layer_1" xmlns="http://www.w3.org/2000/svg" xmlns:xlink="http://www.w3.org/1999/xlink" x="0px" y="0px"
	 viewBox="0 0 40 40" style="enable-background:new 0 0 40 40;" xml:space="preserve">
<style type="text/css">
	.st0{fill-rule:evenodd;clip-rule:evenodd;fill:#713365;}
	.st1{fill:#713365;}
</style>
<g>
	<path class="st0" d="M20,0.8C9.4,0.8,0.8,9.4,0.8,20c0,10.6,8.6,19.2,19.2,19.2c10.6,0,19.2-8.6,19.2-19.2
		C39.2,9.4,30.6,0.8,20,0.8z M20.3,35.5c-8.7,0.2-15.8-6.8-15.8-15.4c0-8.5,6.9-15.4,15.4-15.4c8.5,0,15.2,6.8,15.4,15
		C35.5,28.4,28.6,35.3,20.3,35.5z"/>
	<path class="st0" d="M30.2,20.2c-0.1-0.5,0.2-1,0.7-1.2c0.1,0,0.3-0.1,0.4-0.1c0.2,0,0.4,0,0.6,0C31.3,12.7,26.2,8.5,21,8.1
		c0,0,0,0.1,0,0.1c0,0.2,0,0.4,0,0.5c0,0.7-0.6,1.2-1.3,1c-0.5-0.1-0.8-0.5-0.9-1c0-0.2,0-0.4,0-0.6c-2.8,0.3-5.2,1.4-7.2,3.3
		C9.5,13.5,8.3,16,7.9,19c0.2,0,0.4,0,0.6,0c0.4,0,0.8,0.2,1,0.6c0.2,0.4,0.2,0.8-0.1,1.1c-0.2,0.3-0.5,0.5-0.9,0.5
		c-0.2,0-0.4,0-0.6,0c0.3,2.8,1.4,5.3,3.3,7.3c2.1,2.1,4.6,3.3,7.6,3.6c0-0.2,0-0.4,0-0.6c0-0.4,0.3-0.8,0.7-1
		c0.4-0.2,0.9-0.1,1.2,0.3c0.2,0.2,0.3,0.4,0.3,0.7c0,0.2,0,0.4,0,0.6c5.9-0.5,10.4-5.3,10.9-10.9c-0.2,0-0.4,0-0.7,0
		C30.7,21.2,30.3,20.8,30.2,20.2z M26.9,26.4c-0.2,0.4-0.6,0.7-1.1,0.7c-0.2,0-0.4-0.1-0.6-0.2c-0.9-0.8-1.9-1.7-2.8-2.5
		c-0.7-0.7-1.5-1.3-2.2-2c-0.1-0.1-0.1-0.1-0.2,0c-0.2,0-0.5,0-0.7-0.1c-0.9-0.3-1.5-0.9-1.6-1.9c0-0.1,0-0.2,0-0.3
		c0-0.8,0.4-1.4,1-1.9c0.1,0,0.1-0.1,0.1-0.1c0-0.5,0.1-1.1,0.1-1.6c0-0.6,0.1-1.1,0.1-1.7c0-0.7,0.1-1.4,0.1-2.1
		c0-0.3,0-0.6,0.1-0.9c0.1-0.5,0.4-0.8,0.9-0.8c0.4,0,0.8,0.3,0.8,0.8c0,0.5,0,0.9,0.1,1.4c0,1,0.1,1.9,0.1,2.9c0,0.7,0.1,1.3,0.1,2
		c0,0.1,0,0.1,0.1,0.1c0.6,0.4,1,0.9,1.1,1.6c0,0,0,0,0,0c0,0.2,0.1,0.3,0.2,0.5c0.9,1,1.8,2,2.6,3c0.6,0.6,1.1,1.3,1.7,1.9
		C27,25.6,27,26,26.9,26.4z"/>
</g>
</svg>
