<?xml version="1.0" encoding="utf-8"?>
<!-- Generator: Adobe Illustrator 22.0.1, SVG Export Plug-In . SVG Version: 6.00 Build 0)  -->
<svg version="1.1" id="Layer_1" xmlns="http://www.w3.org/2000/svg" xmlns:xlink="http://www.w3.org/1999/xlink" x="0px" y="0px"
	 viewBox="0 0 64 64" style="enable-background:new 0 0 64 64;" xml:space="preserve">
<style type="text/css">
	.st0{fill:#FFFFFF;}
</style>
<g>
	<path class="st0" d="M31.9,0.4c-9.2,0-17.6,4-23.4,10.3C3.5,16.4,0.3,23.8,0.3,32c0,17.4,14.2,31.6,31.6,31.6
		c8.2,0,15.6-3.1,21.3-8.2c6.4-5.8,10.3-14.1,10.3-23.4C63.5,14.6,49.4,0.4,31.9,0.4z M50.2,52.4c-4.3,3.9-10,6.4-16.1,6.9v-4.1
		c0-1.2-1-2.1-2.1-2.1c-1.2,0-2.1,1-2.1,2.1v4.1c-0.7-0.1-1.4-0.1-2.1-0.3C16,57.2,6.7,47.9,4.9,36.2c-0.1-0.7-0.2-1.4-0.3-2.1h4.1
		c1.2,0,2.1-1,2.1-2.1c0-1.2-0.9-2.1-2.1-2.1H4.7c0.5-6.2,3-11.8,6.9-16.1c4.6-5.1,11-8.5,18.2-9v4.1c0,1.2,1,2.1,2.1,2.1
		c1.2,0,2.1-1,2.1-2.1V7.1V4.7c13.4,1,24.1,11.7,25.2,25.2h-2.4h-1.8c-1.2,0-2.1,0.9-2.1,2.1c0,1.2,1,2.1,2.1,2.1h4.1
		C58.6,41.3,55.3,47.8,50.2,52.4z"/>
	<path class="st0" d="M54.1,21.9c-0.3-0.5-0.9-0.7-1.4-0.5l-18.2,8.7c-0.6-0.8-1.5-1.3-2.5-1.3c-1.2,0-2.3,0.7-2.8,1.7l-9.9-2.9
		c-0.6-0.2-1.1,0.2-1.3,0.7c-0.2,0.6,0.2,1.1,0.7,1.3l8.7,2.5l1.6,0.4c0.3,1.4,1.6,2.5,3.1,2.5c0.3,0,0.6-0.1,0.9-0.1
		c0.8-0.2,1.5-0.8,1.9-1.6c0.2-0.4,0.3-0.8,0.4-1.3l17-8.1l1.6-0.8C54.2,23,54.4,22.4,54.1,21.9z"/>
</g>
</svg>
