<?xml version="1.0" encoding="utf-8"?>
<!-- Generator: Adobe Illustrator 22.0.1, SVG Export Plug-In . SVG Version: 6.00 Build 0)  -->
<svg version="1.1" id="Layer_1" xmlns="http://www.w3.org/2000/svg" xmlns:xlink="http://www.w3.org/1999/xlink" x="0px" y="0px"
	 viewBox="0 0 40 40" style="enable-background:new 0 0 40 40;" xml:space="preserve">
<style type="text/css">
	.st0{fill-rule:evenodd;clip-rule:evenodd;fill:#713365;}
	.st1{fill:#713365;}
</style>
<g>
	<path class="st1" d="M1,21.1c0-0.7,0-1.5,0-2.2c0-0.1,0.1-0.3,0.1-0.4c0.2-2.8,1-5.4,2.4-7.8c3-5.1,7.3-8.2,13.1-9.4
		c0.8-0.1,1.6-0.2,2.3-0.3c0.7,0,1.5,0,2.2,0c0.1,0,0.3,0.1,0.4,0.1c2.9,0.2,5.7,1.1,8.1,2.6c4.9,3,7.9,7.3,9,12.9
		c0.1,0.8,0.2,1.5,0.3,2.3c0,0.8,0,1.5,0,2.3c0,0.1-0.1,0.2-0.1,0.4c-0.1,0.8-0.2,1.6-0.3,2.3c-2.3,10.9-13.3,17.6-23.9,14.3
		C7.3,35.9,2.9,30.9,1.3,23.4C1.2,22.7,1.1,21.9,1,21.1z M20,3c-9.4,0-17,7.6-17,17c0,9.4,7.6,16.9,16.9,16.9c9.4,0,17-7.7,17-17
		C36.9,10.6,29.3,3,20,3z"/>
	<path class="st0" d="M34.9,20c0,8.2-6.7,14.9-14.9,14.8c-8.2,0-14.8-6.7-14.8-14.9c0-8.2,6.7-14.8,14.9-14.8
		C28.2,5.2,34.9,11.8,34.9,20z M15.3,27.5C15.3,27.5,15.3,27.5,15.3,27.5c-0.4,0.1-0.6,0.3-0.5,0.6c0.1,0.4,0.4,0.4,0.7,0.4
		c2.4,0,4.7,0,7.1,0c0.7,0,1.5,0,2.2,0c0.2,0,0.5-0.2,0.5-0.4c0-0.2-0.2-0.4-0.3-0.6c0-0.1-0.1-0.1-0.2-0.1c0-0.1,0-0.2,0-0.2
		c0-0.1,0-0.2-0.1-0.3c-0.7-2.6-2-4.8-3.8-6.7c-0.2-0.2-0.2-0.3,0-0.5c0.1-0.1,0.2-0.2,0.2-0.3c0.9-1.1,1.9-2.2,2.5-3.5
		c0.5-1.1,0.9-2.3,1.3-3.4c-0.1-0.1,0-0.1,0-0.1c0.3-0.1,0.5-0.3,0.4-0.6c-0.1-0.3-0.3-0.4-0.6-0.4c-2.4,0-4.9,0-7.3,0
		c-0.7,0-1.4,0-2,0c-0.3,0-0.5,0.1-0.5,0.4c-0.1,0.3,0.1,0.5,0.4,0.6c0.1,0,0.1,0,0.2,0.1c0.6,2.9,2,5.4,4.1,7.5
		C17.3,22.1,15.9,24.6,15.3,27.5z"/>
	<g>
		<path class="st0" d="M22.3,16.6c-0.5,1.1-0.9,2.1-1.9,2.7c-0.3,0.2-0.6,0.2-0.8,0c-0.4-0.3-0.8-0.6-1.1-1c-0.4-0.5-0.6-1-0.9-1.6
			C19.2,16.6,20.7,16.6,22.3,16.6z"/>
		<path class="st0" d="M20,25.6c1.3,1.1,2.6,2.1,4.1,3.2c-2.8,0-5.4,0-8.1,0C17.4,27.7,18.7,26.7,20,25.6z"/>
		<path class="st0" d="M20.5,21.1c0-0.3-0.2-0.5-0.5-0.5c-0.3,0-0.5,0.2-0.5,0.5c0,0.3,0.2,0.5,0.5,0.5
			C20.3,21.6,20.5,21.3,20.5,21.1z"/>
		<path class="st0" d="M20.3,22.5c0-0.2-0.1-0.3-0.3-0.3c-0.2,0-0.3,0.1-0.3,0.3c0,0.2,0.1,0.3,0.3,0.3
			C20.2,22.9,20.3,22.7,20.3,22.5z"/>
		<path class="st0" d="M20.2,23.9c0-0.1-0.1-0.2-0.2-0.2c-0.1,0-0.2,0.1-0.2,0.2c0,0.1,0.1,0.2,0.2,0.2C20.1,24.1,20.2,24,20.2,23.9
			z"/>
	</g>
</g>
</svg>
