<?xml version="1.0" encoding="utf-8"?>
<!-- Generator: Adobe Illustrator 22.0.1, SVG Export Plug-In . SVG Version: 6.00 Build 0)  -->
<svg version="1.1" id="Layer_1" xmlns="http://www.w3.org/2000/svg" xmlns:xlink="http://www.w3.org/1999/xlink" x="0px" y="0px"
	 viewBox="0 0 40 40" style="enable-background:new 0 0 40 40;" xml:space="preserve">
<style type="text/css">
	.st0{fill-rule:evenodd;clip-rule:evenodd;fill:#713365;}
	.st1{fill:#713365;}
</style>
<g>
	<path class="st0" d="M31.2,16c-1.9-1.9-4-2.2-5.8-0.7c-1.6,1.4-1.9,3.7-0.8,5.4c1.3,2,3.4,2.3,5.9,0.8c0,1.5,0,3.1,0,4.7
		c0,1.5,0.2,3.1,0.2,4.7c-1,0.2-2,0-2.9-0.7c-1.1-0.8-2-1.9-2.8-3c-0.4-0.7-1-1.1-1.8-1.2c-2.2-0.4-4.1,1.8-3.5,4
		c0.4,1.3,1.1,2.4,2,3.4c0.4,0.5,1,1,1.3,1.6c0.4,0.6,0.8,1.2,1,1.9c0.2,0.7-0.1,1.1-0.8,1.3c-9.6,2.6-19.8-3.6-22.1-13.5
		C-0.6,15.4,3.9,6.3,12.4,2.9c6.5-2.6,12.6-1.5,18.1,2.8c0.2,0.2,0.3,0.3,0.2,0.7c-0.4,1.9,0.1,3.6,1.5,4.9c0.2,0.2,0.3,0.4,0.2,0.7
		C32,13.3,31.6,14.6,31.2,16z M10.2,29.3c1.7,0,3-1.4,3-3.1c0-1.7-1.3-3-3-3c-1.7,0-3,1.4-3,3.1C7.2,28,8.6,29.4,10.2,29.3z
		 M20.8,6.7c-1.7,0-3,1.3-3,3c0,1.7,1.3,3.1,3,3.1c1.6,0,3-1.3,3-3C23.8,8.1,22.5,6.7,20.8,6.7z M10.5,17.9c1.7,0,3-1.3,3-3
		c0-1.7-1.3-3.1-3-3.1c-1.6,0-3,1.4-3,3C7.6,16.5,8.9,17.9,10.5,17.9z"/>
	<path class="st0" d="M33.8,12.2c1.2,0.4,2.4,0.4,3.6,0c0.1,0.3,0.2,0.5,0.3,0.7c0.8,2.4,1.1,4.8,1.3,7.3c0.2,3.4,0.2,6.8-0.2,10.2
		c-0.2,2.1-0.6,4.3-1.4,6.3c-0.2,0.6-0.5,1.2-0.9,1.7c-0.6,0.8-1.4,0.8-2,0c-0.7-0.9-1.1-2.1-1.3-3.2c-0.9-3.6-1.1-7.3-1.1-11
		c0-3.5,0.3-7,1.3-10.4C33.4,13.3,33.6,12.8,33.8,12.2z"/>
	<path class="st0" d="M34.7,1c0.1,0.1,0.3,0.1,0.4,0.2c1.8,1.4,3.2,3.1,3.8,5.4c0.5,2-0.6,3.9-2.4,4.4c-1.8,0.5-3.7-0.5-4.2-2.4
		c-0.3-1.1-0.2-2.1,0.5-3c0.4-0.4,0.8-0.9,1.2-1.2C34.9,3.4,35.3,2.4,34.7,1C34.7,1.1,34.7,1,34.7,1z"/>
</g>
</svg>
